<svg width="167" height="49" viewBox="0 0 167 49" fill="none" xmlns="http://www.w3.org/2000/svg">
<path d="M60.7355 27.3875V10.8744H67.3155C68.1244 10.8744 68.8555 10.9756 69.5089 11.178C70.1777 11.3649 70.7455 11.6452 71.2122 12.0189C71.6788 12.377 72.0366 12.813 72.2855 13.3268C72.5344 13.8407 72.6588 14.4168 72.6588 15.0552C72.6588 15.9428 72.4177 16.6902 71.9355 17.2974C71.4688 17.9047 70.8622 18.4108 70.1155 18.8156C71.1266 19.1738 71.9277 19.6876 72.5188 20.3571C73.1255 21.0267 73.4288 21.8909 73.4288 22.9497C73.4288 23.6504 73.2888 24.2733 73.0088 24.8182C72.7444 25.3632 72.3633 25.8304 71.8655 26.2196C71.3833 26.5933 70.8077 26.8814 70.1388 27.0838C69.47 27.2862 68.7311 27.3875 67.9222 27.3875H60.7355ZM67.6888 24.7248C68.3888 24.7248 68.9566 24.538 69.3922 24.1643C69.8433 23.7906 70.0688 23.2689 70.0688 22.5994C70.0688 21.8987 69.8433 21.3615 69.3922 20.9878C68.9411 20.5985 68.3733 20.4039 67.6888 20.4039H64.0722V24.7248H67.6888ZM66.9189 17.7412C67.6189 17.7412 68.1866 17.5544 68.6222 17.1807C69.0733 16.7914 69.2988 16.2698 69.2988 15.6158C69.2988 14.9462 69.0811 14.4324 68.6455 14.0742C68.2255 13.7161 67.65 13.537 66.9189 13.537H64.0722V17.7412H66.9189Z" fill="#E8F1FF"/>
<path d="M78.8768 27.3875H75.5868V15.3121L78.2235 15.0319L78.5501 16.9004C79.0013 16.3087 79.4757 15.8338 79.9735 15.4756C80.4713 15.1175 81.0468 14.9384 81.7001 14.9384C82.1201 14.9384 82.5868 15.0241 83.1001 15.1954L82.4935 18.0682C82.229 17.9748 81.9879 17.9203 81.7701 17.9047C81.5524 17.8736 81.3579 17.858 81.1868 17.858C80.7201 17.858 80.3079 17.9281 79.9501 18.0682C79.6079 18.2083 79.2501 18.4186 78.8768 18.6988V27.3875Z" fill="#E8F1FF"/>
<path d="M94.3018 26.3364C93.524 26.8347 92.7307 27.1773 91.9218 27.3641C91.1129 27.5354 90.3818 27.621 89.7284 27.621C88.8573 27.621 88.0484 27.4809 87.3018 27.2006C86.5707 26.9203 85.9329 26.5077 85.3884 25.9627C84.844 25.4177 84.4162 24.7482 84.1051 23.9541C83.8096 23.1444 83.6618 22.2101 83.6618 21.1513C83.6618 20.2481 83.7784 19.4151 84.0118 18.6521C84.2451 17.8891 84.5873 17.2352 85.0384 16.6902C85.5051 16.1452 86.0807 15.717 86.7651 15.4056C87.4495 15.0941 88.2351 14.9384 89.1218 14.9384C89.9773 14.9384 90.7396 15.0786 91.4084 15.3589C92.0929 15.6391 92.6607 16.0284 93.1118 16.5267C93.5629 17.025 93.9051 17.6089 94.1384 18.2784C94.3873 18.948 94.5118 19.6642 94.5118 20.4272C94.5118 20.7386 94.4962 21.0734 94.4651 21.4315C94.434 21.7741 94.3873 22.0777 94.3251 22.3425H86.9284C87.1151 23.2456 87.4729 23.9229 88.0018 24.3745C88.5462 24.8105 89.2384 25.0285 90.0784 25.0285C90.6073 25.0285 91.1362 24.9506 91.6651 24.7949C92.2095 24.6236 92.754 24.3823 93.2984 24.0708L94.3018 26.3364ZM91.3851 20.1937C91.354 19.3684 91.1595 18.7144 90.8018 18.2317C90.444 17.749 89.8996 17.5077 89.1684 17.5077C88.4062 17.5077 87.8462 17.7646 87.4884 18.2784C87.1307 18.7767 86.9129 19.4151 86.8351 20.1937H91.3851Z" fill="#E8F1FF"/>
<path d="M103.568 27.3875C103.49 27.1228 103.412 26.6712 103.334 26.0328C102.821 26.4843 102.245 26.8425 101.608 27.1072C100.985 27.3719 100.34 27.5042 99.671 27.5042C99.111 27.5042 98.6054 27.4108 98.1543 27.224C97.7188 27.0371 97.3454 26.7802 97.0343 26.4532C96.7232 26.1106 96.4821 25.7136 96.311 25.262C96.1554 24.7949 96.0777 24.2966 96.0777 23.7672C96.0777 22.5838 96.4821 21.6573 97.291 20.9878C98.1154 20.3026 99.3054 19.9601 100.861 19.9601C101.203 19.9601 101.561 19.9757 101.934 20.0068C102.323 20.0379 102.704 20.0847 103.078 20.1469V19.9367C103.078 19.1893 102.844 18.6054 102.378 18.185C101.927 17.749 101.297 17.531 100.488 17.531C99.9899 17.531 99.4921 17.6166 98.9943 17.7879C98.4965 17.9436 97.9988 18.1538 97.501 18.4186L96.5676 16.1296C97.1899 15.7403 97.8977 15.4445 98.691 15.2421C99.4843 15.0396 100.278 14.9384 101.071 14.9384C102.72 14.9384 104.003 15.3744 104.921 16.2464C105.854 17.1184 106.321 18.403 106.321 20.1002V24.0475C106.321 24.499 106.337 25.0362 106.368 25.6591C106.399 26.2819 106.477 26.858 106.601 27.3875H103.568ZM103.101 22.0155C102.914 21.9843 102.697 21.961 102.448 21.9454C102.214 21.9298 102.012 21.922 101.841 21.922C100.939 21.922 100.27 22.0777 99.8343 22.3892C99.4143 22.685 99.2043 23.1132 99.2043 23.6738C99.2043 24.172 99.3443 24.5458 99.6243 24.7949C99.9199 25.044 100.301 25.1686 100.768 25.1686C101.172 25.1686 101.577 25.0907 101.981 24.935C102.385 24.7637 102.759 24.5613 103.101 24.3278V22.0155Z" fill="#E8F1FF"/>
<path d="M118.135 27.7378C117.342 27.0371 116.564 26.2041 115.802 25.2387C115.04 24.2577 114.308 23.2222 113.608 22.1322L112.465 23.3701V27.3875H109.175V10.0803L112.465 9.8V19.7032L116.315 15.172H119.978L115.638 20.0535C115.934 20.5051 116.261 20.9722 116.618 21.4549C116.992 21.9376 117.381 22.4203 117.785 22.903C118.205 23.3857 118.633 23.8606 119.068 24.3278C119.52 24.7949 119.971 25.2387 120.422 25.6591L118.135 27.7378Z" fill="#E8F1FF"/>
<path d="M126.739 27.3875H123.403V10.8744H134.486V13.537H126.739V18.0916H133.086V20.7542H126.739V27.3875Z" fill="#E8F1FF"/>
<path d="M138.832 27.3875H135.542V15.3121L138.179 15.0319L138.506 16.9004C138.957 16.3087 139.431 15.8338 139.929 15.4756C140.427 15.1175 141.002 14.9384 141.656 14.9384C142.076 14.9384 142.542 15.0241 143.056 15.1954L142.449 18.0682C142.185 17.9748 141.944 17.9203 141.726 17.9047C141.508 17.8736 141.314 17.858 141.143 17.858C140.676 17.858 140.264 17.9281 139.906 18.0682C139.564 18.2083 139.206 18.4186 138.832 18.6988V27.3875Z" fill="#E8F1FF"/>
<path d="M154.257 26.3364C153.48 26.8347 152.686 27.1773 151.877 27.3641C151.069 27.5354 150.337 27.621 149.684 27.621C148.813 27.621 148.004 27.4809 147.257 27.2006C146.526 26.9203 145.889 26.5077 145.344 25.9627C144.8 25.4177 144.372 24.7482 144.061 23.9541C143.765 23.1444 143.617 22.2101 143.617 21.1513C143.617 20.2481 143.734 19.4151 143.967 18.6521C144.201 17.8891 144.543 17.2352 144.994 16.6902C145.461 16.1452 146.036 15.717 146.721 15.4056C147.405 15.0941 148.191 14.9384 149.077 14.9384C149.933 14.9384 150.695 15.0786 151.364 15.3589C152.049 15.6391 152.616 16.0284 153.067 16.5267C153.519 17.025 153.861 17.6089 154.094 18.2784C154.343 18.948 154.467 19.6642 154.467 20.4272C154.467 20.7386 154.452 21.0734 154.421 21.4315C154.39 21.7741 154.343 22.0777 154.281 22.3425H146.884C147.071 23.2456 147.429 23.9229 147.957 24.3745C148.502 24.8105 149.194 25.0285 150.034 25.0285C150.563 25.0285 151.092 24.9506 151.621 24.7949C152.165 24.6236 152.71 24.3823 153.254 24.0708L154.257 26.3364ZM151.341 20.1937C151.31 19.3684 151.115 18.7144 150.757 18.2317C150.4 17.749 149.855 17.5077 149.124 17.5077C148.362 17.5077 147.802 17.7646 147.444 18.2784C147.086 18.7767 146.869 19.4151 146.791 20.1937H151.341Z" fill="#E8F1FF"/>
<path d="M166.79 26.3364C166.012 26.8347 165.219 27.1773 164.41 27.3641C163.601 27.5354 162.87 27.621 162.217 27.621C161.346 27.621 160.537 27.4809 159.79 27.2006C159.059 26.9203 158.421 26.5077 157.877 25.9627C157.332 25.4177 156.904 24.7482 156.593 23.9541C156.298 23.1444 156.15 22.2101 156.15 21.1513C156.15 20.2481 156.267 19.4151 156.5 18.6521C156.733 17.8891 157.076 17.2352 157.527 16.6902C157.993 16.1452 158.569 15.717 159.253 15.4056C159.938 15.0941 160.723 14.9384 161.61 14.9384C162.466 14.9384 163.228 15.0786 163.897 15.3589C164.581 15.6391 165.149 16.0284 165.6 16.5267C166.051 17.025 166.393 17.6089 166.627 18.2784C166.876 18.948 167 19.6642 167 20.4272C167 20.7386 166.984 21.0734 166.953 21.4315C166.922 21.7741 166.876 22.0777 166.813 22.3425H159.417C159.603 23.2456 159.961 23.9229 160.49 24.3745C161.034 24.8105 161.727 25.0285 162.567 25.0285C163.096 25.0285 163.624 24.9506 164.153 24.7949C164.698 24.6236 165.242 24.3823 165.787 24.0708L166.79 26.3364ZM163.873 20.1937C163.842 19.3684 163.648 18.7144 163.29 18.2317C162.932 17.749 162.388 17.5077 161.657 17.5077C160.894 17.5077 160.334 17.7646 159.977 18.2784C159.619 18.7767 159.401 19.4151 159.323 20.1937H163.873Z" fill="#E8F1FF"/>
<path d="M63.5677 38.9938H60.7355V34.4413H61.3406V38.4658H63.5677V38.9938Z" fill="white"/>
<path d="M67.0563 38.9938H64.2242V34.4413H67.0563V34.9693H64.8292V36.4439H66.6444V36.9719H64.8292V38.4658H67.0563V38.9938Z" fill="white"/>
<path d="M69.4839 38.9938H68.8788V34.9693H67.4563V34.4413H70.9064V34.9693H69.4839V38.9938Z" fill="white"/>
<path d="M76.6309 38.7234C76.5408 38.7706 76.4357 38.8157 76.3155 38.8586C76.1997 38.8972 76.0752 38.9316 75.9422 38.9616C75.8092 38.9917 75.6719 39.0153 75.5303 39.0325C75.3887 39.0496 75.2492 39.0582 75.1119 39.0582C74.7386 39.0582 74.4167 38.996 74.1464 38.8715C73.876 38.7427 73.6529 38.5731 73.477 38.3628C73.3053 38.1481 73.1766 37.8992 73.0908 37.6158C73.0092 37.3325 72.9685 37.0363 72.9685 36.7272C72.9685 36.4138 73.0092 36.1155 73.0908 35.8321C73.1766 35.5488 73.3053 35.2998 73.477 35.0852C73.6529 34.8705 73.8717 34.6988 74.1335 34.57C74.3996 34.4412 74.7128 34.3769 75.0733 34.3769C75.3651 34.3769 75.6397 34.4155 75.8972 34.4928C76.1589 34.5657 76.3885 34.6602 76.5859 34.7761L76.367 35.2655C76.0967 35.1324 75.85 35.0423 75.6268 34.995C75.4037 34.9478 75.2149 34.9242 75.0604 34.9242C74.7986 34.9242 74.5733 34.9736 74.3845 35.0723C74.2 35.171 74.0477 35.3041 73.9275 35.4715C73.8117 35.639 73.7258 35.8321 73.6701 36.0511C73.6143 36.27 73.5864 36.4997 73.5864 36.7401C73.5864 36.9676 73.6121 37.1887 73.6636 37.4033C73.7151 37.6137 73.8009 37.8026 73.9211 37.97C74.0455 38.1331 74.2065 38.264 74.4038 38.3628C74.6055 38.4615 74.8544 38.5109 75.1505 38.5109C75.2449 38.5109 75.3672 38.5023 75.5174 38.4851C75.6719 38.468 75.8457 38.4293 76.0388 38.3692V37.0942H75.0025V36.5791H76.6309V38.7234Z" fill="white"/>
<path d="M80.1151 38.3692C80.2953 38.2748 80.4455 38.146 80.5656 37.9829C80.6858 37.8197 80.7759 37.6308 80.836 37.4162C80.896 37.1973 80.9261 36.9655 80.9261 36.7208C80.9261 36.4761 80.896 36.2443 80.836 36.0253C80.7759 35.8064 80.6858 35.6153 80.5656 35.4522C80.4455 35.2891 80.2953 35.1603 80.1151 35.0659C79.9391 34.9714 79.7331 34.9242 79.4971 34.9242C79.2611 34.9242 79.053 34.9714 78.8728 35.0659C78.6968 35.1603 78.5488 35.2891 78.4286 35.4522C78.3085 35.6153 78.2184 35.8064 78.1583 36.0253C78.0982 36.2443 78.0682 36.4761 78.0682 36.7208C78.0682 36.9655 78.0982 37.1973 78.1583 37.4162C78.2184 37.6308 78.3085 37.8197 78.4286 37.9829C78.5488 38.146 78.6968 38.2748 78.8728 38.3692C79.053 38.4637 79.2611 38.5109 79.4971 38.5109C79.7331 38.5109 79.9391 38.4637 80.1151 38.3692ZM80.9969 38.3885C80.8209 38.5989 80.6064 38.7642 80.3532 38.8844C80.1 39.0003 79.8147 39.0582 79.4971 39.0582C79.1796 39.0582 78.8942 39.0003 78.6411 38.8844C78.3879 38.7642 78.1733 38.5989 77.9974 38.3885C77.8214 38.1782 77.6863 37.9313 77.5919 37.648C77.4975 37.3604 77.4503 37.0513 77.4503 36.7208C77.4503 36.3859 77.4975 36.0768 77.5919 35.7935C77.6863 35.5059 77.8214 35.259 77.9974 35.053C78.1733 34.8426 78.3879 34.6774 78.6411 34.5572C78.8942 34.437 79.1796 34.3769 79.4971 34.3769C79.8147 34.3769 80.1 34.437 80.3532 34.5572C80.6064 34.6774 80.8209 34.8426 80.9969 35.053C81.1728 35.259 81.308 35.5059 81.4024 35.7935C81.4968 36.0768 81.544 36.3859 81.544 36.7208C81.544 37.0513 81.4968 37.3604 81.4024 37.648C81.308 37.9313 81.1728 38.1782 80.9969 38.3885Z" fill="white"/>
<path d="M86.514 38.3692C86.6943 38.2748 86.8445 38.146 86.9646 37.9829C87.0848 37.8197 87.1749 37.6308 87.2349 37.4162C87.295 37.1973 87.3251 36.9655 87.3251 36.7208C87.3251 36.4761 87.295 36.2443 87.2349 36.0253C87.1749 35.8064 87.0848 35.6153 86.9646 35.4522C86.8445 35.2891 86.6943 35.1603 86.514 35.0659C86.3381 34.9714 86.1321 34.9242 85.8961 34.9242C85.6601 34.9242 85.452 34.9714 85.2718 35.0659C85.0958 35.1603 84.9478 35.2891 84.8276 35.4522C84.7075 35.6153 84.6174 35.8064 84.5573 36.0253C84.4972 36.2443 84.4672 36.4761 84.4672 36.7208C84.4672 36.9655 84.4972 37.1973 84.5573 37.4162C84.6174 37.6308 84.7075 37.8197 84.8276 37.9829C84.9478 38.146 85.0958 38.2748 85.2718 38.3692C85.452 38.4637 85.6601 38.5109 85.8961 38.5109C86.1321 38.5109 86.3381 38.4637 86.514 38.3692ZM87.3959 38.3885C87.2199 38.5989 87.0054 38.7642 86.7522 38.8844C86.499 39.0003 86.2137 39.0582 85.8961 39.0582C85.5786 39.0582 85.2932 39.0003 85.04 38.8844C84.7869 38.7642 84.5723 38.5989 84.3964 38.3885C84.2204 38.1782 84.0853 37.9313 83.9909 37.648C83.8964 37.3604 83.8492 37.0513 83.8492 36.7208C83.8492 36.3859 83.8964 36.0768 83.9909 35.7935C84.0853 35.5059 84.2204 35.259 84.3964 35.053C84.5723 34.8426 84.7869 34.6774 85.04 34.5572C85.2932 34.437 85.5786 34.3769 85.8961 34.3769C86.2137 34.3769 86.499 34.437 86.7522 34.5572C87.0054 34.6774 87.2199 34.8426 87.3959 35.053C87.5718 35.259 87.707 35.5059 87.8014 35.7935C87.8958 36.0768 87.943 36.3859 87.943 36.7208C87.943 37.0513 87.8958 37.3604 87.8014 37.648C87.707 37.9313 87.5718 38.1782 87.3959 38.3885Z" fill="white"/>
<path d="M89.4823 38.9938H88.8772V34.4413H91.7094V34.9693H89.4823V36.5083H91.2974V37.0363H89.4823V38.9938Z" fill="white"/>
<path d="M98.2533 38.9938H97.629L96.5025 35.6325L95.4469 38.9938H94.8226L93.6382 34.4413H94.269L95.1766 38.1632L96.2193 34.834H96.8244L97.925 38.176L98.8197 34.4413H99.4377L98.2533 38.9938Z" fill="white"/>
<path d="M103.635 38.9938H103.03V36.9719H100.79V38.9938H100.185V34.4413H100.79V36.4439H103.03V34.4413H103.635V38.9938Z" fill="white"/>
<path d="M108.481 38.9938H107.831L107.322 37.6609H105.43L104.921 38.9938H104.303L106.112 34.4413H106.672L108.481 38.9938ZM107.129 37.1522L106.376 35.1689L105.623 37.1522H107.129Z" fill="white"/>
<path d="M110.178 38.9938H109.573V34.9693H108.151V34.4413H111.601V34.9693H110.178V38.9938Z" fill="white"/>
<path d="M117.351 38.9938H116.746V36.9719H114.506V38.9938H113.901V34.4413H114.506V36.4439H116.746V34.4413H117.351V38.9938Z" fill="white"/>
<path d="M120.948 38.3692C121.128 38.2748 121.278 38.146 121.398 37.9829C121.519 37.8197 121.609 37.6308 121.669 37.4162C121.729 37.1973 121.759 36.9655 121.759 36.7208C121.759 36.4761 121.729 36.2443 121.669 36.0253C121.609 35.8064 121.519 35.6153 121.398 35.4522C121.278 35.2891 121.128 35.1603 120.948 35.0659C120.772 34.9714 120.566 34.9242 120.33 34.9242C120.094 34.9242 119.886 34.9714 119.706 35.0659C119.53 35.1603 119.382 35.2891 119.261 35.4522C119.141 35.6153 119.051 35.8064 118.991 36.0253C118.931 36.2443 118.901 36.4761 118.901 36.7208C118.901 36.9655 118.931 37.1973 118.991 37.4162C119.051 37.6308 119.141 37.8197 119.261 37.9829C119.382 38.146 119.53 38.2748 119.706 38.3692C119.886 38.4637 120.094 38.5109 120.33 38.5109C120.566 38.5109 120.772 38.4637 120.948 38.3692ZM121.83 38.3885C121.654 38.5989 121.439 38.7642 121.186 38.8844C120.933 39.0003 120.647 39.0582 120.33 39.0582C120.012 39.0582 119.727 39.0003 119.474 38.8844C119.221 38.7642 119.006 38.5989 118.83 38.3885C118.654 38.1782 118.519 37.9313 118.425 37.648C118.33 37.3604 118.283 37.0513 118.283 36.7208C118.283 36.3859 118.33 36.0768 118.425 35.7935C118.519 35.5059 118.654 35.259 118.83 35.053C119.006 34.8426 119.221 34.6774 119.474 34.5572C119.727 34.437 120.012 34.3769 120.33 34.3769C120.647 34.3769 120.933 34.437 121.186 34.5572C121.439 34.6774 121.654 34.8426 121.83 35.053C122.006 35.259 122.141 35.5059 122.235 35.7935C122.33 36.0768 122.377 36.3859 122.377 36.7208C122.377 37.0513 122.33 37.3604 122.235 37.648C122.141 37.9313 122.006 38.1782 121.83 38.3885Z" fill="white"/>
<path d="M126.143 38.9938H123.311V34.4413H123.916V38.4658H126.143V38.9938Z" fill="white"/>
<path d="M128.229 38.4658C128.473 38.4658 128.692 38.4229 128.885 38.337C129.083 38.2469 129.248 38.1245 129.381 37.97C129.518 37.8154 129.621 37.633 129.69 37.4226C129.763 37.208 129.799 36.974 129.799 36.7208C129.799 36.4675 129.763 36.2335 129.69 36.0189C129.621 35.8042 129.518 35.6196 129.381 35.4651C129.248 35.3106 129.083 35.1904 128.885 35.1045C128.692 35.0143 128.473 34.9693 128.229 34.9693H127.405V38.4658H128.229ZM126.8 38.9938V34.4413H128.267C128.593 34.4413 128.889 34.4971 129.156 34.6087C129.422 34.7203 129.647 34.877 129.831 35.0787C130.02 35.2762 130.164 35.5166 130.263 35.7999C130.366 36.079 130.417 36.3859 130.417 36.7208C130.417 37.0556 130.366 37.3625 130.263 37.6416C130.164 37.9206 130.02 38.161 129.831 38.3628C129.647 38.5603 129.422 38.7148 129.156 38.8264C128.889 38.938 128.593 38.9938 128.267 38.9938H126.8Z" fill="white"/>
<path d="M131.17 38.0923C131.432 38.2469 131.685 38.3563 131.93 38.4207C132.179 38.4808 132.402 38.5109 132.599 38.5109C132.895 38.5109 133.136 38.4529 133.32 38.337C133.509 38.2168 133.603 38.043 133.603 37.8154C133.603 37.6867 133.571 37.5772 133.507 37.487C133.443 37.3969 133.357 37.3175 133.249 37.2488C133.146 37.1801 133.024 37.1221 132.883 37.0749C132.745 37.0234 132.604 36.9719 132.458 36.9204C132.29 36.8646 132.123 36.8045 131.956 36.7401C131.793 36.6757 131.645 36.5963 131.512 36.5018C131.378 36.4031 131.271 36.2829 131.19 36.1412C131.108 35.9996 131.067 35.8214 131.067 35.6068C131.067 35.3878 131.11 35.2011 131.196 35.0465C131.286 34.892 131.402 34.7654 131.544 34.6666C131.69 34.5636 131.855 34.4906 132.039 34.4477C132.228 34.4005 132.419 34.3769 132.612 34.3769C132.878 34.3769 133.136 34.4133 133.385 34.4863C133.638 34.5593 133.863 34.658 134.06 34.7825L133.835 35.2784C133.621 35.1667 133.412 35.0809 133.211 35.0208C133.009 34.9564 132.812 34.9242 132.619 34.9242C132.503 34.9242 132.389 34.9371 132.277 34.9628C132.166 34.9843 132.065 35.0208 131.975 35.0723C131.889 35.1238 131.818 35.1904 131.763 35.2719C131.711 35.3535 131.685 35.4522 131.685 35.5681C131.685 35.6797 131.711 35.7763 131.763 35.8579C131.818 35.9352 131.891 36.0038 131.981 36.0639C132.072 36.1241 132.177 36.1777 132.297 36.2249C132.421 36.2722 132.552 36.3194 132.689 36.3666C132.861 36.4267 133.037 36.4911 133.217 36.5598C133.397 36.6285 133.561 36.7165 133.706 36.8238C133.857 36.9311 133.979 37.062 134.073 37.2166C134.172 37.3711 134.221 37.5622 134.221 37.7897C134.221 37.9957 134.178 38.1782 134.093 38.337C134.011 38.4959 133.897 38.6289 133.751 38.7363C133.606 38.8393 133.432 38.9187 133.23 38.9745C133.028 39.0303 132.81 39.0582 132.574 39.0582C132.312 39.0582 132.041 39.0239 131.763 38.9552C131.484 38.8822 131.209 38.7599 130.939 38.5882L131.17 38.0923Z" fill="white"/>
<path d="M138.38 38.9938H137.775V37.3132L136.179 34.4413H136.861L138.077 36.7594L139.326 34.4413H139.976L138.38 37.3132V38.9938Z" fill="white"/>
<path d="M142.772 38.3692C142.952 38.2748 143.103 38.146 143.223 37.9829C143.343 37.8197 143.433 37.6308 143.493 37.4162C143.553 37.1973 143.583 36.9655 143.583 36.7208C143.583 36.4761 143.553 36.2443 143.493 36.0253C143.433 35.8064 143.343 35.6153 143.223 35.4522C143.103 35.2891 142.952 35.1603 142.772 35.0659C142.596 34.9714 142.39 34.9242 142.154 34.9242C141.918 34.9242 141.71 34.9714 141.53 35.0659C141.354 35.1603 141.206 35.2891 141.086 35.4522C140.966 35.6153 140.876 35.8064 140.816 36.0253C140.755 36.2443 140.725 36.4761 140.725 36.7208C140.725 36.9655 140.755 37.1973 140.816 37.4162C140.876 37.6308 140.966 37.8197 141.086 37.9829C141.206 38.146 141.354 38.2748 141.53 38.3692C141.71 38.4637 141.918 38.5109 142.154 38.5109C142.39 38.5109 142.596 38.4637 142.772 38.3692ZM143.654 38.3885C143.478 38.5989 143.264 38.7642 143.01 38.8844C142.757 39.0003 142.472 39.0582 142.154 39.0582C141.837 39.0582 141.551 39.0003 141.298 38.8844C141.045 38.7642 140.831 38.5989 140.655 38.3885C140.479 38.1782 140.344 37.9313 140.249 37.648C140.155 37.3604 140.107 37.0513 140.107 36.7208C140.107 36.3859 140.155 36.0768 140.249 35.7935C140.344 35.5059 140.479 35.259 140.655 35.053C140.831 34.8426 141.045 34.6774 141.298 34.5572C141.551 34.437 141.837 34.3769 142.154 34.3769C142.472 34.3769 142.757 34.437 143.01 34.5572C143.264 34.6774 143.478 34.8426 143.654 35.053C143.83 35.259 143.965 35.5059 144.06 35.7935C144.154 36.0768 144.201 36.3859 144.201 36.7208C144.201 37.0513 144.154 37.3604 144.06 37.648C143.965 37.9313 143.83 38.1782 143.654 38.3885Z" fill="white"/>
<path d="M148.547 37.2552C148.547 37.5343 148.508 37.7854 148.431 38.0086C148.358 38.2276 148.249 38.4164 148.103 38.5753C147.957 38.7298 147.777 38.85 147.562 38.9359C147.352 39.0174 147.109 39.0582 146.835 39.0582C146.556 39.0582 146.309 39.0174 146.095 38.9359C145.884 38.85 145.706 38.7298 145.56 38.5753C145.414 38.4164 145.303 38.2276 145.226 38.0086C145.153 37.7854 145.116 37.5343 145.116 37.2552V34.4413H145.721V37.2359C145.721 37.6351 145.805 37.9485 145.972 38.176C146.144 38.3993 146.431 38.5109 146.835 38.5109C147.23 38.5109 147.513 38.3993 147.684 38.176C147.856 37.9528 147.942 37.6394 147.942 37.2359V34.4413H148.547V37.2552Z" fill="white"/>
<path d="M151.308 38.9938V34.4413H152.892C153.115 34.4413 153.316 34.4692 153.497 34.525C153.677 34.5765 153.831 34.6537 153.96 34.7568C154.089 34.8555 154.187 34.9757 154.256 35.1174C154.325 35.259 154.359 35.4179 154.359 35.5939C154.359 35.8515 154.29 36.064 154.153 36.2314C154.016 36.3945 153.844 36.5254 153.638 36.6242C153.93 36.7272 154.157 36.8753 154.321 37.0685C154.488 37.2574 154.572 37.4935 154.572 37.7768C154.572 37.9743 154.531 38.1503 154.449 38.3048C154.368 38.4551 154.258 38.5817 154.121 38.6847C153.988 38.7878 153.831 38.865 153.651 38.9166C153.471 38.9681 153.282 38.9938 153.085 38.9938H151.308ZM153.078 38.4722C153.349 38.4722 153.561 38.4079 153.715 38.2791C153.874 38.146 153.954 37.9635 153.954 37.7317C153.954 37.6115 153.932 37.5021 153.889 37.4033C153.846 37.3046 153.786 37.2209 153.709 37.1522C153.632 37.0792 153.54 37.0234 153.432 36.9848C153.325 36.9418 153.207 36.9204 153.078 36.9204H151.913V38.4722H153.078ZM152.859 36.4181C153.138 36.4181 153.355 36.3516 153.509 36.2185C153.664 36.0854 153.741 35.9051 153.741 35.6776C153.741 35.463 153.666 35.2912 153.516 35.1624C153.37 35.0294 153.151 34.9628 152.859 34.9628H151.913V36.4181H152.859Z" fill="white"/>
<path d="M159.076 38.9938H158.425L157.917 37.6609H156.025L155.516 38.9938H154.898L156.707 34.4413H157.267L159.076 38.9938ZM157.724 37.1522L156.971 35.1689L156.218 37.1522H157.724Z" fill="white"/>
<path d="M162.928 38.659C162.838 38.7148 162.733 38.7685 162.613 38.82C162.497 38.8672 162.372 38.908 162.239 38.9423C162.106 38.9767 161.967 39.0046 161.821 39.026C161.679 39.0475 161.536 39.0582 161.39 39.0582C161.029 39.0582 160.718 38.996 160.456 38.8715C160.199 38.7427 159.984 38.571 159.813 38.3563C159.641 38.1374 159.515 37.8884 159.433 37.6094C159.351 37.3261 159.311 37.0298 159.311 36.7208C159.311 36.4117 159.351 36.1155 159.433 35.8321C159.519 35.5488 159.648 35.2998 159.819 35.0852C159.995 34.8662 160.214 34.6945 160.476 34.57C160.742 34.4412 161.055 34.3769 161.416 34.3769C161.707 34.3769 161.982 34.4155 162.239 34.4928C162.501 34.5657 162.731 34.6602 162.928 34.7761L162.709 35.2655C162.439 35.1324 162.192 35.0423 161.969 34.995C161.746 34.9478 161.557 34.9242 161.403 34.9242C161.141 34.9242 160.916 34.9736 160.727 35.0723C160.542 35.171 160.39 35.3041 160.27 35.4715C160.154 35.639 160.068 35.8321 160.012 36.0511C159.957 36.2657 159.929 36.4889 159.929 36.7208C159.929 36.9526 159.957 37.1758 160.012 37.3904C160.068 37.6051 160.154 37.7961 160.27 37.9635C160.39 38.131 160.542 38.264 160.727 38.3628C160.916 38.4615 161.141 38.5109 161.403 38.5109C161.557 38.5109 161.746 38.4873 161.969 38.44C162.192 38.3928 162.439 38.3027 162.709 38.1696L162.928 38.659Z" fill="white"/>
<path d="M166.549 39.0582C166.408 38.9123 166.258 38.747 166.099 38.5624C165.94 38.3735 165.783 38.1825 165.629 37.9893C165.475 37.7918 165.326 37.5987 165.185 37.4098C165.048 37.2166 164.927 37.0427 164.824 36.8882L164.284 37.5579V38.9938H163.679V34.4413H164.284V36.7723L166.137 34.4413H166.8L165.185 36.4374C165.309 36.622 165.449 36.8174 165.603 37.0234C165.758 37.2295 165.914 37.4334 166.073 37.6351C166.236 37.8326 166.397 38.0236 166.556 38.2082C166.715 38.3885 166.863 38.5452 167 38.6783L166.549 39.0582Z" fill="white"/>
<path d="M45.3903 15.0326H49.2014C49.4259 15.0326 49.4792 14.7189 49.2673 14.6447L46.4819 13.6689C46.4223 13.6481 46.3761 13.6001 46.3574 13.5397L45.5807 11.0349C45.513 10.8164 45.1909 10.8653 45.1909 11.094V14.833C45.1909 14.9432 45.2802 15.0326 45.3903 15.0326Z" fill="url(#paint0_linear_3_77)"/>
<path d="M24.4784 4.65611C13.5286 4.65612 4.65202 13.5405 4.65201 24.5C4.65201 35.4594 13.5286 44.3439 24.4784 44.3439C29.1496 44.3439 33.4435 42.727 36.832 40.0219C37.7971 39.2514 39.2055 39.24 40.0785 40.1138C41.0222 41.0584 41.0291 42.6004 39.9974 43.4478C35.7736 46.9175 30.369 49 24.4784 49C10.9593 49 0 38.0309 0 24.5C1.09668e-05 10.969 10.9594 1.09708e-05 24.4784 0C30.7418 0 36.4558 2.35448 40.785 6.22738C41.7506 7.09122 41.7148 8.57873 40.799 9.49532C39.8993 10.3958 38.4369 10.3505 37.4765 9.51525C33.9962 6.48841 29.4511 4.65611 24.4784 4.65611Z" fill="url(#paint1_linear_3_77)"/>
<path d="M22.1524 10.9973C22.1524 9.71153 23.1938 8.66922 24.4784 8.6692C25.763 8.6692 26.8044 9.71152 26.8044 10.9973V22.9846C26.8044 23.3375 26.9444 23.6758 27.1937 23.9253L34.0316 30.7692C34.9399 31.6784 34.9399 33.1524 34.0316 34.0616C33.1232 34.9707 31.6505 34.9707 30.7421 34.0616L22.8337 26.1462C22.3975 25.7096 22.1524 25.1174 22.1524 24.5V10.9973Z" fill="url(#paint2_linear_3_77)"/>
<path d="M41.0613 21.1546L43.1601 21.7627C43.3008 21.8034 43.4359 21.6836 43.4124 21.5389L43.0355 19.2219C43.0158 19.1005 43.1094 18.9903 43.2323 18.9903H44.5413C44.7378 18.9903 44.8158 18.7358 44.6531 18.6255L40.5135 15.8179C40.3702 15.7207 40.1797 15.84 40.2043 16.0115L40.9193 20.9913C40.9305 21.0689 40.986 21.1328 41.0613 21.1546Z" fill="url(#paint3_linear_3_77)"/>
<path d="M41.007 12.9178L45.1909 17.7597L42.2818 13.6569C42.2718 13.6428 42.2637 13.6276 42.2577 13.6115L41.5869 11.8212C41.519 11.6397 41.2585 11.652 41.2078 11.8391L40.9654 12.7351C40.948 12.7992 40.9636 12.8676 41.007 12.9178Z" fill="url(#paint4_linear_3_77)"/>
<path d="M47.3168 20.8045L50.5911 17.1206C50.713 16.9836 50.9395 17.0698 50.9395 17.2533V18.8799C50.9395 18.9486 50.9042 19.0124 50.8461 19.0489L47.5717 21.1062C47.3764 21.2289 47.1635 20.977 47.3168 20.8045Z" fill="url(#paint5_linear_3_77)"/>
<path d="M41.4169 23.6665L44.8731 24.5313C45.018 24.5676 45.0731 24.7447 44.9743 24.8568L43.533 26.4936C43.4892 26.5433 43.473 26.6115 43.4895 26.6756L43.8658 28.1317C43.9061 28.2879 43.7543 28.4249 43.6033 28.3687L41.5748 27.6139C41.4647 27.5729 41.4137 27.4461 41.4647 27.3402L42.2191 25.7742C42.2488 25.7125 42.2448 25.6399 42.2085 25.5818L41.1995 23.9659C41.1044 23.8136 41.2429 23.623 41.4169 23.6665Z" fill="url(#paint6_linear_3_77)"/>
<path d="M46.8993 28.7137L50.138 25.4248C50.2948 25.2655 50.5546 25.4454 50.461 25.6484L49.1844 28.4168C49.1595 28.4708 49.1119 28.5108 49.0545 28.5261L47.0923 29.0466C46.8962 29.0987 46.7568 28.8583 46.8993 28.7137Z" fill="url(#paint7_linear_3_77)"/>
<path d="M41.4675 30.8062L42.9251 35.8974C42.9616 36.0247 43.1096 36.0818 43.222 36.012L45.118 34.8331C45.1645 34.8042 45.1971 34.7573 45.2081 34.7036L45.785 31.8774C45.806 31.7746 45.7438 31.6731 45.6427 31.6452L41.7123 30.5589C41.5622 30.5175 41.4247 30.6565 41.4675 30.8062Z" fill="url(#paint8_linear_3_77)"/>
<path d="M39.9019 33.3676L38.7339 36.0244C38.7004 36.1007 38.7178 36.1899 38.7776 36.2479L40.9047 38.3144C40.9264 38.3354 40.9526 38.3513 40.9813 38.3607L42.8009 38.9598C42.9913 39.0225 43.1447 38.7963 43.0162 38.6423L40.9676 36.1872C40.9479 36.1636 40.9339 36.1358 40.9268 36.1059L40.2782 33.4014C40.2337 33.2155 39.9788 33.1926 39.9019 33.3676Z" fill="url(#paint9_linear_3_77)"/>
<defs>
<linearGradient id="paint0_linear_3_77" x1="50.1344" y1="1.39684" x2="21.4844" y2="52.0879" gradientUnits="userSpaceOnUse">
<stop stop-color="#5BDADE"/>
<stop offset="1" stop-color="#2651E0"/>
</linearGradient>
<linearGradient id="paint1_linear_3_77" x1="50.1344" y1="1.39684" x2="21.4844" y2="52.0879" gradientUnits="userSpaceOnUse">
<stop stop-color="#5BDADE"/>
<stop offset="1" stop-color="#2651E0"/>
</linearGradient>
<linearGradient id="paint2_linear_3_77" x1="50.1344" y1="1.39684" x2="21.4844" y2="52.0879" gradientUnits="userSpaceOnUse">
<stop stop-color="#5BDADE"/>
<stop offset="1" stop-color="#2651E0"/>
</linearGradient>
<linearGradient id="paint3_linear_3_77" x1="50.1344" y1="1.39684" x2="21.4844" y2="52.0879" gradientUnits="userSpaceOnUse">
<stop stop-color="#5BDADE"/>
<stop offset="1" stop-color="#2651E0"/>
</linearGradient>
<linearGradient id="paint4_linear_3_77" x1="50.1344" y1="1.39684" x2="21.4844" y2="52.0879" gradientUnits="userSpaceOnUse">
<stop stop-color="#5BDADE"/>
<stop offset="1" stop-color="#2651E0"/>
</linearGradient>
<linearGradient id="paint5_linear_3_77" x1="50.1344" y1="1.39684" x2="21.4844" y2="52.0879" gradientUnits="userSpaceOnUse">
<stop stop-color="#5BDADE"/>
<stop offset="1" stop-color="#2651E0"/>
</linearGradient>
<linearGradient id="paint6_linear_3_77" x1="50.1344" y1="1.39684" x2="21.4844" y2="52.0879" gradientUnits="userSpaceOnUse">
<stop stop-color="#5BDADE"/>
<stop offset="1" stop-color="#2651E0"/>
</linearGradient>
<linearGradient id="paint7_linear_3_77" x1="50.1344" y1="1.39684" x2="21.4844" y2="52.0879" gradientUnits="userSpaceOnUse">
<stop stop-color="#5BDADE"/>
<stop offset="1" stop-color="#2651E0"/>
</linearGradient>
<linearGradient id="paint8_linear_3_77" x1="50.1344" y1="1.39684" x2="21.4844" y2="52.0879" gradientUnits="userSpaceOnUse">
<stop stop-color="#5BDADE"/>
<stop offset="1" stop-color="#2651E0"/>
</linearGradient>
<linearGradient id="paint9_linear_3_77" x1="50.1344" y1="1.39684" x2="21.4844" y2="52.0879" gradientUnits="userSpaceOnUse">
<stop stop-color="#5BDADE"/>
<stop offset="1" stop-color="#2651E0"/>
</linearGradient>
</defs>
</svg>
