<svg width="258" height="176" viewBox="0 0 258 176" fill="none" xmlns="http://www.w3.org/2000/svg">
<path d="M165.729 26.1199H172.43C172.825 26.1199 172.918 25.5749 172.546 25.4459L167.648 23.7506C167.543 23.7143 167.462 23.631 167.429 23.5261L166.063 19.1738C165.944 18.7941 165.378 18.879 165.378 19.2765V25.7732C165.378 25.9647 165.535 26.1199 165.729 26.1199Z" fill="url(#paint0_linear_3_96)"/>
<path d="M128.958 8.09024C109.705 8.09026 94.0965 23.5274 94.0965 42.5701C94.0965 61.6127 109.705 77.05 128.958 77.05C137.172 77.05 144.722 74.2406 150.68 69.5403C152.377 68.2015 154.854 68.1817 156.389 69.6999C158.048 71.3412 158.06 74.0205 156.246 75.493C148.819 81.5217 139.316 85.1402 128.958 85.1402C105.187 85.1402 85.9166 66.0809 85.9166 42.5701C85.9166 19.0593 105.187 1.90623e-05 128.958 0C139.971 0 150.019 4.09104 157.631 10.8204C159.329 12.3214 159.266 14.906 157.655 16.4987C156.074 18.0632 153.502 17.9846 151.813 16.5333C145.694 11.274 137.702 8.09024 128.958 8.09024Z" fill="url(#paint1_linear_3_96)"/>
<path d="M124.868 19.1083C124.868 16.8743 126.699 15.0632 128.958 15.0632C131.217 15.0632 133.048 16.8743 133.048 19.1083V39.9371C133.048 40.5501 133.294 41.1381 133.733 41.5716L145.756 53.4632C147.353 55.0429 147.353 57.6041 145.756 59.1838C144.159 60.7635 141.569 60.7635 139.972 59.1838L126.066 45.4304C125.299 44.6718 124.868 43.6429 124.868 42.5701V19.1083Z" fill="url(#paint2_linear_3_96)"/>
<path d="M158.117 36.7573L161.807 37.8139C162.055 37.8847 162.292 37.6765 162.251 37.4251L161.588 33.3991C161.553 33.1881 161.718 32.9966 161.934 32.9966H164.236C164.581 32.9966 164.718 32.5546 164.432 32.3629L157.154 27.4845C156.902 27.3156 156.567 27.5228 156.61 27.8208L157.867 36.4735C157.887 36.6084 157.984 36.7194 158.117 36.7573Z" fill="url(#paint3_linear_3_96)"/>
<path d="M158.021 22.4454L165.378 30.8585L160.263 23.7296C160.245 23.7052 160.231 23.6787 160.22 23.6507L159.041 20.54C158.921 20.2247 158.463 20.246 158.374 20.5711L157.948 22.128C157.918 22.2393 157.945 22.3582 158.021 22.4454Z" fill="url(#paint4_linear_3_96)"/>
<path d="M169.116 36.149L174.874 29.748C175.088 29.5099 175.486 29.6597 175.486 29.9785V32.8049C175.486 32.9242 175.424 33.0351 175.322 33.0986L169.564 36.6732C169.221 36.8864 168.847 36.4487 169.116 36.149Z" fill="url(#paint5_linear_3_96)"/>
<path d="M158.742 41.1219L164.819 42.6245C165.074 42.6875 165.171 42.9952 164.997 43.1902L162.463 46.0342C162.386 46.1205 162.357 46.2389 162.386 46.3503L163.048 48.8804C163.119 49.1518 162.852 49.3899 162.586 49.2923L159.02 47.9807C158.826 47.9095 158.736 47.6891 158.826 47.5051L160.152 44.7841C160.205 44.6769 160.198 44.5507 160.134 44.4498L158.36 41.642C158.193 41.3775 158.436 41.0462 158.742 41.1219Z" fill="url(#paint6_linear_3_96)"/>
<path d="M168.382 49.8916L174.077 44.1769C174.353 43.9002 174.809 44.2128 174.645 44.5656L172.4 49.3758C172.356 49.4696 172.273 49.5392 172.172 49.5656L168.721 50.4701C168.376 50.5605 168.131 50.1429 168.382 49.8916Z" fill="url(#paint7_linear_3_96)"/>
<path d="M158.831 53.5276L161.394 62.3738C161.458 62.595 161.718 62.6942 161.916 62.5728L165.25 60.5245C165.332 60.4742 165.389 60.3928 165.408 60.2994L166.423 55.3888C166.46 55.2102 166.35 55.0338 166.172 54.9852L159.261 53.0978C158.997 53.0258 158.756 53.2673 158.831 53.5276Z" fill="url(#paint8_linear_3_96)"/>
<path d="M156.078 57.978L154.024 62.5944C153.965 62.727 153.996 62.8819 154.101 62.9828L157.841 66.5733C157.88 66.6099 157.926 66.6375 157.976 66.6539L161.176 67.6948C161.51 67.8038 161.78 67.4108 161.554 67.1432L157.952 62.8773C157.917 62.8363 157.893 62.7879 157.88 62.736L156.74 58.0367C156.662 57.7138 156.213 57.6741 156.078 57.978Z" fill="url(#paint9_linear_3_96)"/>
<path d="M0 147.263V107.619H15.9756C17.9395 107.619 19.7146 107.862 21.3008 108.348C22.9248 108.796 24.3033 109.469 25.4363 110.366C26.5693 111.226 27.438 112.273 28.0423 113.507C28.6466 114.74 28.9487 116.123 28.9487 117.656C28.9487 119.787 28.3633 121.581 27.1925 123.039C26.0595 124.497 24.5866 125.712 22.7737 126.684C25.2286 127.544 27.1736 128.777 28.6088 130.385C30.0817 131.992 30.8182 134.067 30.8182 136.609C30.8182 138.291 30.4783 139.787 29.7985 141.095C29.1564 142.403 28.2311 143.525 27.0226 144.46C25.8518 145.357 24.4544 146.048 22.8304 146.534C21.2064 147.02 19.4124 147.263 17.4485 147.263H0ZM16.882 140.871C18.5815 140.871 19.9601 140.422 21.0175 139.525C22.1128 138.628 22.6604 137.375 22.6604 135.768C22.6604 134.086 22.1128 132.796 21.0175 131.899C19.9223 130.964 18.5438 130.497 16.882 130.497H8.1011V140.871H16.882ZM15.0125 124.105C16.7121 124.105 18.0906 123.656 19.1481 122.759C20.2433 121.824 20.7909 120.572 20.7909 119.002C20.7909 117.394 20.2622 116.161 19.2047 115.301C18.185 114.441 16.7876 114.011 15.0125 114.011H8.1011V124.105H15.0125Z" fill="#E8F1FF"/>
<path d="M44.0453 147.263H36.0575V118.273L42.4591 117.6L43.2522 122.086C44.3475 120.665 45.4994 119.525 46.7079 118.665C47.9165 117.806 49.3139 117.376 50.9001 117.376C51.9198 117.376 53.0528 117.581 54.2992 117.992L52.8262 124.89C52.1842 124.665 51.5988 124.534 51.07 124.497C50.5413 124.422 50.0692 124.385 49.6538 124.385C48.5207 124.385 47.5199 124.553 46.6513 124.89C45.8204 125.226 44.9517 125.731 44.0453 126.404V147.263Z" fill="#E8F1FF"/>
<path d="M81.4956 144.74C79.6073 145.936 77.6812 146.759 75.7172 147.207C73.7533 147.618 71.9783 147.824 70.392 147.824C68.2771 147.824 66.3132 147.488 64.5003 146.815C62.7253 146.142 61.1768 145.151 59.8549 143.843C58.5331 142.534 57.4945 140.927 56.7391 139.02C56.0216 137.076 55.6628 134.833 55.6628 132.291C55.6628 130.123 55.946 128.123 56.5125 126.291C57.079 124.46 57.9099 122.89 59.0052 121.581C60.1382 120.273 61.5356 119.245 63.1974 118.497C64.8591 117.749 66.7664 117.376 68.9191 117.376C70.9963 117.376 72.8469 117.712 74.4709 118.385C76.1327 119.058 77.5112 119.992 78.6064 121.189C79.7017 122.385 80.5326 123.787 81.0991 125.394C81.7034 127.002 82.0055 128.721 82.0055 130.553C82.0055 131.301 81.9677 132.105 81.8922 132.964C81.8167 133.787 81.7034 134.516 81.5523 135.151H63.5939C64.0471 137.319 64.9158 138.946 66.1999 140.03C67.5217 141.076 69.2024 141.6 71.2418 141.6C72.5259 141.6 73.81 141.413 75.0941 141.039C76.4159 140.628 77.7378 140.048 79.0596 139.301L81.4956 144.74ZM74.4143 129.992C74.3387 128.011 73.8666 126.441 72.998 125.282C72.1293 124.123 70.8075 123.544 69.0324 123.544C67.1818 123.544 65.8222 124.161 64.9535 125.394C64.0849 126.591 63.5561 128.123 63.3673 129.992H74.4143Z" fill="#E8F1FF"/>
<path d="M103.992 147.263C103.803 146.628 103.615 145.544 103.426 144.011C102.179 145.095 100.782 145.955 99.2336 146.59C97.7229 147.226 96.1556 147.544 94.5316 147.544C93.172 147.544 91.9445 147.319 90.8493 146.871C89.7918 146.422 88.8854 145.805 88.13 145.02C87.3747 144.198 86.7893 143.245 86.3738 142.161C85.9962 141.039 85.8073 139.843 85.8073 138.572C85.8073 135.731 86.7893 133.506 88.7532 131.899C90.7549 130.254 93.6441 129.432 97.4208 129.432C98.2517 129.432 99.1203 129.469 100.027 129.544C100.971 129.619 101.896 129.731 102.803 129.88V129.376C102.803 127.581 102.236 126.179 101.103 125.17C100.008 124.123 98.4783 123.6 96.5144 123.6C95.3058 123.6 94.0973 123.805 92.8887 124.217C91.6801 124.591 90.4716 125.095 89.263 125.731L86.997 120.235C88.5077 119.301 90.2261 118.591 92.1523 118.105C94.0784 117.619 96.0045 117.376 97.9307 117.376C101.934 117.376 105.05 118.422 107.278 120.516C109.544 122.609 110.677 125.693 110.677 129.768V139.245C110.677 140.329 110.715 141.618 110.79 143.114C110.866 144.609 111.055 145.992 111.357 147.263H103.992ZM102.859 134.366C102.406 134.291 101.877 134.235 101.273 134.198C100.707 134.161 100.216 134.142 99.8001 134.142C97.6096 134.142 95.9856 134.516 94.9281 135.263C93.9084 135.974 93.3986 137.002 93.3986 138.347C93.3986 139.544 93.7385 140.441 94.4183 141.039C95.1359 141.637 96.0612 141.936 97.1942 141.936C98.1761 141.936 99.1581 141.749 100.14 141.375C101.122 140.964 102.028 140.478 102.859 139.918V134.366Z" fill="#E8F1FF"/>
<path d="M139.361 148.104C137.435 146.422 135.546 144.422 133.696 142.104C131.845 139.749 130.07 137.263 128.37 134.647L125.595 137.618V147.263H117.607V105.712L125.595 105.039V128.815L134.942 117.936H143.836L133.299 129.656C134.017 130.74 134.81 131.862 135.678 133.02C136.585 134.179 137.529 135.338 138.511 136.497C139.531 137.656 140.569 138.796 141.627 139.918C142.722 141.039 143.817 142.104 144.913 143.114L139.361 148.104Z" fill="#E8F1FF"/>
<path d="M160.251 147.263H152.15V107.619H179.059V114.011H160.251V124.946H175.66V131.338H160.251V147.263Z" fill="#E8F1FF"/>
<path d="M189.612 147.263H181.624V118.273L188.026 117.6L188.819 122.086C189.914 120.665 191.066 119.525 192.275 118.665C193.483 117.806 194.881 117.376 196.467 117.376C197.486 117.376 198.62 117.581 199.866 117.992L198.393 124.89C197.751 124.665 197.165 124.534 196.637 124.497C196.108 124.422 195.636 124.385 195.22 124.385C194.087 124.385 193.087 124.553 192.218 124.89C191.387 125.226 190.518 125.731 189.612 126.404V147.263Z" fill="#E8F1FF"/>
<path d="M227.062 144.74C225.174 145.936 223.248 146.759 221.284 147.207C219.32 147.618 217.545 147.824 215.959 147.824C213.844 147.824 211.88 147.488 210.067 146.815C208.292 146.142 206.743 145.151 205.422 143.843C204.1 142.534 203.061 140.927 202.306 139.02C201.588 137.076 201.229 134.833 201.229 132.291C201.229 130.123 201.513 128.123 202.079 126.291C202.646 124.46 203.477 122.89 204.572 121.581C205.705 120.273 207.102 119.245 208.764 118.497C210.426 117.749 212.333 117.376 214.486 117.376C216.563 117.376 218.414 117.712 220.038 118.385C221.699 119.058 223.078 119.992 224.173 121.189C225.268 122.385 226.099 123.787 226.666 125.394C227.27 127.002 227.572 128.721 227.572 130.553C227.572 131.301 227.534 132.105 227.459 132.964C227.383 133.787 227.27 134.516 227.119 135.151H209.161C209.614 137.319 210.482 138.946 211.767 140.03C213.088 141.076 214.769 141.6 216.808 141.6C218.093 141.6 219.377 141.413 220.661 141.039C221.983 140.628 223.304 140.048 224.626 139.301L227.062 144.74ZM219.981 129.992C219.905 128.011 219.433 126.441 218.565 125.282C217.696 124.123 216.374 123.544 214.599 123.544C212.748 123.544 211.389 124.161 210.52 125.394C209.652 126.591 209.123 128.123 208.934 129.992H219.981Z" fill="#E8F1FF"/>
<path d="M257.49 144.74C255.602 145.936 253.676 146.759 251.712 147.207C249.748 147.618 247.973 147.824 246.387 147.824C244.272 147.824 242.308 147.488 240.495 146.815C238.72 146.142 237.171 145.151 235.849 143.843C234.528 142.534 233.489 140.927 232.734 139.02C232.016 137.076 231.657 134.833 231.657 132.291C231.657 130.123 231.94 128.123 232.507 126.291C233.074 124.46 233.904 122.89 235 121.581C236.133 120.273 237.53 119.245 239.192 118.497C240.854 117.749 242.761 117.376 244.914 117.376C246.991 117.376 248.841 117.712 250.465 118.385C252.127 119.058 253.506 119.992 254.601 121.189C255.696 122.385 256.527 123.787 257.094 125.394C257.698 127.002 258 128.721 258 130.553C258 131.301 257.962 132.105 257.887 132.964C257.811 133.787 257.698 134.516 257.547 135.151H239.588C240.042 137.319 240.91 138.946 242.194 140.03C243.516 141.076 245.197 141.6 247.236 141.6C248.52 141.6 249.804 141.413 251.089 141.039C252.41 140.628 253.732 140.048 255.054 139.301L257.49 144.74ZM250.409 129.992C250.333 128.011 249.861 126.441 248.992 125.282C248.124 124.123 246.802 123.544 245.027 123.544C243.176 123.544 241.817 124.161 240.948 125.394C240.079 126.591 239.551 128.123 239.362 129.992H250.409Z" fill="#E8F1FF"/>
<path d="M6.87618 175.128H0V164.198H1.469V173.86H6.87618V175.128Z" fill="white"/>
<path d="M15.3463 175.128H8.47008V164.198H15.3463V165.466H9.93909V169.006H14.3461V170.274H9.93909V173.86H15.3463V175.128Z" fill="white"/>
<path d="M21.2402 175.128H19.7712V165.466H16.3175V164.198H24.6939V165.466H21.2402V175.128Z" fill="white"/>
<path d="M38.5926 174.479C38.3738 174.592 38.1185 174.7 37.8268 174.803C37.5455 174.896 37.2434 174.978 36.9204 175.051C36.5974 175.123 36.264 175.179 35.9202 175.221C35.5764 175.262 35.2378 175.282 34.9044 175.282C33.998 175.282 33.2166 175.133 32.5603 174.834C31.9039 174.525 31.3622 174.118 30.935 173.613C30.5183 173.098 30.2057 172.5 29.9973 171.82C29.7994 171.139 29.7004 170.428 29.7004 169.686C29.7004 168.934 29.7994 168.217 29.9973 167.537C30.2057 166.857 30.5183 166.259 30.935 165.744C31.3622 165.229 31.8935 164.816 32.529 164.507C33.175 164.198 33.9355 164.043 34.8107 164.043C35.5191 164.043 36.1859 164.136 36.811 164.322C37.4465 164.497 38.0039 164.724 38.4832 165.002L37.9518 166.177C37.2955 165.857 36.6964 165.641 36.1546 165.528C35.6129 165.414 35.1545 165.357 34.7794 165.357C34.1439 165.357 33.5969 165.476 33.1385 165.713C32.6905 165.95 32.3207 166.27 32.0289 166.672C31.7476 167.073 31.5393 167.537 31.4038 168.063C31.2684 168.589 31.2007 169.14 31.2007 169.717C31.2007 170.263 31.2632 170.794 31.3882 171.309C31.5132 171.814 31.7216 172.268 32.0133 172.67C32.3154 173.061 32.7061 173.376 33.1854 173.613C33.6751 173.85 34.2793 173.968 34.9982 173.968C35.2274 173.968 35.5243 173.948 35.889 173.907C36.264 173.865 36.686 173.773 37.1548 173.628V170.567H34.6388V169.331H38.5926V174.479Z" fill="white"/>
<path d="M47.0517 173.628C47.4892 173.402 47.8539 173.092 48.1456 172.701C48.4373 172.309 48.6561 171.856 48.802 171.34C48.9478 170.815 49.0207 170.258 49.0207 169.671C49.0207 169.083 48.9478 168.527 48.802 168.001C48.6561 167.475 48.4373 167.017 48.1456 166.625C47.8539 166.234 47.4892 165.924 47.0517 165.698C46.6245 165.471 46.1244 165.357 45.5514 165.357C44.9784 165.357 44.4731 165.471 44.0355 165.698C43.6084 165.924 43.2489 166.234 42.9572 166.625C42.6655 167.017 42.4467 167.475 42.3008 168.001C42.155 168.527 42.0821 169.083 42.0821 169.671C42.0821 170.258 42.155 170.815 42.3008 171.34C42.4467 171.856 42.6655 172.309 42.9572 172.701C43.2489 173.092 43.6084 173.402 44.0355 173.628C44.4731 173.855 44.9784 173.968 45.5514 173.968C46.1244 173.968 46.6245 173.855 47.0517 173.628ZM49.1926 173.675C48.7655 174.18 48.2446 174.576 47.6299 174.865C47.0152 175.143 46.3224 175.282 45.5514 175.282C44.7804 175.282 44.0876 175.143 43.4729 174.865C42.8582 174.576 42.3373 174.18 41.9101 173.675C41.483 173.17 41.1548 172.577 40.9256 171.897C40.6964 171.206 40.5818 170.464 40.5818 169.671C40.5818 168.867 40.6964 168.125 40.9256 167.445C41.1548 166.754 41.483 166.161 41.9101 165.667C42.3373 165.162 42.8582 164.765 43.4729 164.476C44.0876 164.188 44.7804 164.043 45.5514 164.043C46.3224 164.043 47.0152 164.188 47.6299 164.476C48.2446 164.765 48.7655 165.162 49.1926 165.667C49.6198 166.161 49.948 166.754 50.1772 167.445C50.4064 168.125 50.521 168.867 50.521 169.671C50.521 170.464 50.4064 171.206 50.1772 171.897C49.948 172.577 49.6198 173.17 49.1926 173.675Z" fill="white"/>
<path d="M62.5878 173.628C63.0253 173.402 63.39 173.092 63.6817 172.701C63.9734 172.309 64.1922 171.856 64.3381 171.34C64.4839 170.815 64.5569 170.258 64.5569 169.671C64.5569 169.083 64.4839 168.527 64.3381 168.001C64.1922 167.475 63.9734 167.017 63.6817 166.625C63.39 166.234 63.0253 165.924 62.5878 165.698C62.1606 165.471 61.6605 165.357 61.0875 165.357C60.5145 165.357 60.0092 165.471 59.5716 165.698C59.1445 165.924 58.785 166.234 58.4933 166.625C58.2016 167.017 57.9828 167.475 57.837 168.001C57.6911 168.527 57.6182 169.083 57.6182 169.671C57.6182 170.258 57.6911 170.815 57.837 171.34C57.9828 171.856 58.2016 172.309 58.4933 172.701C58.785 173.092 59.1445 173.402 59.5716 173.628C60.0092 173.855 60.5145 173.968 61.0875 173.968C61.6605 173.968 62.1606 173.855 62.5878 173.628ZM64.7288 173.675C64.3016 174.18 63.7807 174.576 63.166 174.865C62.5513 175.143 61.8585 175.282 61.0875 175.282C60.3165 175.282 59.6237 175.143 59.009 174.865C58.3943 174.576 57.8734 174.18 57.4463 173.675C57.0191 173.17 56.6909 172.577 56.4617 171.897C56.2325 171.206 56.1179 170.464 56.1179 169.671C56.1179 168.867 56.2325 168.125 56.4617 167.445C56.6909 166.754 57.0191 166.161 57.4463 165.667C57.8734 165.162 58.3943 164.765 59.009 164.476C59.6237 164.188 60.3165 164.043 61.0875 164.043C61.8585 164.043 62.5513 164.188 63.166 164.476C63.7807 164.765 64.3016 165.162 64.7288 165.667C65.1559 166.161 65.4841 166.754 65.7133 167.445C65.9425 168.125 66.0571 168.867 66.0571 169.671C66.0571 170.464 65.9425 171.206 65.7133 171.897C65.4841 172.577 65.1559 173.17 64.7288 173.675Z" fill="white"/>
<path d="M69.7943 175.128H68.3253V164.198H75.2015V165.466H69.7943V169.16H74.2013V170.428H69.7943V175.128Z" fill="white"/>
<path d="M91.0896 175.128H89.5737L86.8389 167.058L84.2759 175.128H82.7601L79.8846 164.198H81.4161L83.6196 173.134L86.1513 165.141H87.6203L90.2926 173.165L92.4649 164.198H93.9651L91.0896 175.128Z" fill="white"/>
<path d="M104.157 175.128H102.688V170.274H97.2496V175.128H95.7806V164.198H97.2496V169.006H102.688V164.198H104.157V175.128Z" fill="white"/>
<path d="M115.921 175.128H114.343L113.108 171.928H108.514L107.279 175.128H105.779L110.17 164.198H111.53L115.921 175.128ZM112.639 170.706L110.811 165.945L108.982 170.706H112.639Z" fill="white"/>
<path d="M120.043 175.128H118.574V165.466H115.12V164.198H123.496V165.466H120.043V175.128Z" fill="white"/>
<path d="M137.457 175.128H135.988V170.274H130.55V175.128H129.081V164.198H130.55V169.006H135.988V164.198H137.457V175.128Z" fill="white"/>
<path d="M146.19 173.628C146.627 173.402 146.992 173.092 147.284 172.701C147.575 172.309 147.794 171.856 147.94 171.34C148.086 170.815 148.159 170.258 148.159 169.671C148.159 169.083 148.086 168.527 147.94 168.001C147.794 167.475 147.575 167.017 147.284 166.625C146.992 166.234 146.627 165.924 146.19 165.698C145.763 165.471 145.263 165.357 144.69 165.357C144.117 165.357 143.611 165.471 143.174 165.698C142.746 165.924 142.387 166.234 142.095 166.625C141.804 167.017 141.585 167.475 141.439 168.001C141.293 168.527 141.22 169.083 141.22 169.671C141.22 170.258 141.293 170.815 141.439 171.34C141.585 171.856 141.804 172.309 142.095 172.701C142.387 173.092 142.746 173.402 143.174 173.628C143.611 173.855 144.117 173.968 144.69 173.968C145.263 173.968 145.763 173.855 146.19 173.628ZM148.331 173.675C147.904 174.18 147.383 174.576 146.768 174.865C146.153 175.143 145.46 175.282 144.69 175.282C143.919 175.282 143.226 175.143 142.611 174.865C141.996 174.576 141.475 174.18 141.048 173.675C140.621 173.17 140.293 172.577 140.064 171.897C139.835 171.206 139.72 170.464 139.72 169.671C139.72 168.867 139.835 168.125 140.064 167.445C140.293 166.754 140.621 166.161 141.048 165.667C141.475 165.162 141.996 164.765 142.611 164.476C143.226 164.188 143.919 164.043 144.69 164.043C145.46 164.043 146.153 164.188 146.768 164.476C147.383 164.765 147.904 165.162 148.331 165.667C148.758 166.161 149.086 166.754 149.315 167.445C149.545 168.125 149.659 168.867 149.659 169.671C149.659 170.464 149.545 171.206 149.315 171.897C149.086 172.577 148.758 173.17 148.331 173.675Z" fill="white"/>
<path d="M158.804 175.128H151.927V164.198H153.396V173.86H158.804V175.128Z" fill="white"/>
<path d="M163.867 173.86C164.461 173.86 164.992 173.757 165.461 173.551C165.94 173.335 166.341 173.041 166.664 172.67C166.998 172.299 167.248 171.861 167.414 171.356C167.591 170.84 167.68 170.279 167.68 169.671C167.68 169.063 167.591 168.501 167.414 167.986C167.248 167.47 166.998 167.027 166.664 166.656C166.341 166.285 165.94 165.996 165.461 165.79C164.992 165.574 164.461 165.466 163.867 165.466H161.866V173.86H163.867ZM160.397 175.128V164.198H163.961C164.752 164.198 165.471 164.332 166.117 164.6C166.763 164.868 167.31 165.244 167.758 165.729C168.216 166.203 168.565 166.78 168.805 167.46C169.055 168.13 169.18 168.867 169.18 169.671C169.18 170.475 169.055 171.211 168.805 171.881C168.565 172.551 168.216 173.128 167.758 173.613C167.31 174.087 166.763 174.458 166.117 174.726C165.471 174.994 164.752 175.128 163.961 175.128H160.397Z" fill="white"/>
<path d="M171.009 172.964C171.645 173.335 172.259 173.597 172.853 173.752C173.457 173.896 173.999 173.968 174.478 173.968C175.197 173.968 175.781 173.829 176.229 173.551C176.687 173.262 176.916 172.845 176.916 172.299C176.916 171.99 176.838 171.727 176.682 171.51C176.526 171.294 176.317 171.103 176.057 170.938C175.807 170.773 175.51 170.634 175.166 170.521C174.833 170.397 174.489 170.274 174.135 170.15C173.728 170.016 173.322 169.872 172.916 169.717C172.52 169.562 172.16 169.372 171.837 169.145C171.514 168.908 171.254 168.619 171.056 168.279C170.858 167.939 170.759 167.511 170.759 166.996C170.759 166.471 170.863 166.022 171.072 165.651C171.29 165.28 171.572 164.976 171.915 164.739C172.27 164.492 172.671 164.317 173.119 164.213C173.577 164.1 174.041 164.043 174.51 164.043C175.156 164.043 175.781 164.131 176.385 164.306C177 164.481 177.547 164.718 178.026 165.017L177.479 166.208C176.958 165.94 176.453 165.734 175.963 165.589C175.473 165.435 174.994 165.357 174.525 165.357C174.244 165.357 173.968 165.388 173.697 165.45C173.426 165.502 173.181 165.589 172.963 165.713C172.754 165.837 172.582 165.996 172.447 166.192C172.322 166.388 172.259 166.625 172.259 166.903C172.259 167.171 172.322 167.403 172.447 167.599C172.582 167.785 172.759 167.95 172.978 168.094C173.197 168.238 173.452 168.367 173.744 168.48C174.046 168.594 174.364 168.707 174.697 168.82C175.114 168.965 175.541 169.119 175.979 169.284C176.416 169.449 176.812 169.66 177.166 169.918C177.531 170.176 177.828 170.49 178.057 170.861C178.297 171.232 178.417 171.691 178.417 172.237C178.417 172.732 178.312 173.17 178.104 173.551C177.906 173.932 177.63 174.252 177.276 174.509C176.922 174.757 176.5 174.947 176.01 175.081C175.52 175.215 174.989 175.282 174.416 175.282C173.78 175.282 173.124 175.2 172.447 175.035C171.77 174.86 171.103 174.566 170.446 174.154L171.009 172.964Z" fill="white"/>
<path d="M188.513 175.128H187.044V171.093L183.169 164.198H184.825L187.779 169.763L190.811 164.198H192.389L188.513 171.093V175.128Z" fill="white"/>
<path d="M199.177 173.628C199.615 173.402 199.98 173.092 200.271 172.701C200.563 172.309 200.782 171.856 200.928 171.34C201.074 170.815 201.146 170.258 201.146 169.671C201.146 169.083 201.074 168.527 200.928 168.001C200.782 167.475 200.563 167.017 200.271 166.625C199.98 166.234 199.615 165.924 199.177 165.698C198.75 165.471 198.25 165.357 197.677 165.357C197.104 165.357 196.599 165.471 196.161 165.698C195.734 165.924 195.375 166.234 195.083 166.625C194.791 167.017 194.572 167.475 194.427 168.001C194.281 168.527 194.208 169.083 194.208 169.671C194.208 170.258 194.281 170.815 194.427 171.34C194.572 171.856 194.791 172.309 195.083 172.701C195.375 173.092 195.734 173.402 196.161 173.628C196.599 173.855 197.104 173.968 197.677 173.968C198.25 173.968 198.75 173.855 199.177 173.628ZM201.318 173.675C200.891 174.18 200.37 174.576 199.756 174.865C199.141 175.143 198.448 175.282 197.677 175.282C196.906 175.282 196.213 175.143 195.599 174.865C194.984 174.576 194.463 174.18 194.036 173.675C193.609 173.17 193.281 172.577 193.051 171.897C192.822 171.206 192.708 170.464 192.708 169.671C192.708 168.867 192.822 168.125 193.051 167.445C193.281 166.754 193.609 166.161 194.036 165.667C194.463 165.162 194.984 164.765 195.599 164.476C196.213 164.188 196.906 164.043 197.677 164.043C198.448 164.043 199.141 164.188 199.756 164.476C200.37 164.765 200.891 165.162 201.318 165.667C201.746 166.161 202.074 166.754 202.303 167.445C202.532 168.125 202.647 168.867 202.647 169.671C202.647 170.464 202.532 171.206 202.303 171.897C202.074 172.577 201.746 173.17 201.318 173.675Z" fill="white"/>
<path d="M213.198 170.954C213.198 171.624 213.104 172.227 212.916 172.763C212.739 173.288 212.474 173.742 212.119 174.123C211.765 174.494 211.327 174.783 210.807 174.989C210.296 175.185 209.707 175.282 209.041 175.282C208.363 175.282 207.764 175.185 207.243 174.989C206.733 174.783 206.301 174.494 205.946 174.123C205.592 173.742 205.321 173.288 205.134 172.763C204.957 172.227 204.868 171.624 204.868 170.954V164.198H206.337V170.907C206.337 171.866 206.54 172.618 206.947 173.165C207.363 173.7 208.061 173.968 209.041 173.968C209.999 173.968 210.687 173.7 211.104 173.165C211.52 172.629 211.729 171.876 211.729 170.907V164.198H213.198V170.954Z" fill="white"/>
<path d="M219.902 175.128V164.198H223.746C224.288 164.198 224.777 164.265 225.215 164.399C225.653 164.523 226.028 164.708 226.34 164.956C226.653 165.193 226.892 165.481 227.059 165.821C227.226 166.161 227.309 166.543 227.309 166.965C227.309 167.584 227.142 168.094 226.809 168.496C226.476 168.887 226.059 169.202 225.559 169.439C226.267 169.686 226.82 170.042 227.215 170.505C227.622 170.959 227.825 171.526 227.825 172.206C227.825 172.68 227.726 173.103 227.528 173.474C227.33 173.834 227.064 174.138 226.731 174.386C226.408 174.633 226.028 174.819 225.59 174.942C225.153 175.066 224.694 175.128 224.215 175.128H219.902ZM224.199 173.876C224.856 173.876 225.371 173.721 225.746 173.412C226.132 173.092 226.325 172.654 226.325 172.098C226.325 171.809 226.273 171.546 226.168 171.309C226.064 171.072 225.918 170.871 225.731 170.706C225.543 170.531 225.319 170.397 225.059 170.305C224.798 170.201 224.512 170.15 224.199 170.15H221.371V173.876H224.199ZM223.668 168.944C224.345 168.944 224.871 168.784 225.246 168.465C225.621 168.145 225.809 167.712 225.809 167.166C225.809 166.651 225.627 166.239 225.262 165.929C224.908 165.61 224.376 165.45 223.668 165.45H221.371V168.944H223.668Z" fill="white"/>
<path d="M238.76 175.128H237.182L235.947 171.928H231.353L230.118 175.128H228.618L233.009 164.198H234.369L238.76 175.128ZM235.478 170.706L233.65 165.945L231.822 170.706H235.478Z" fill="white"/>
<path d="M248.114 174.324C247.895 174.458 247.64 174.587 247.348 174.71C247.067 174.824 246.765 174.922 246.442 175.004C246.119 175.087 245.78 175.154 245.426 175.205C245.082 175.257 244.733 175.282 244.379 175.282C243.504 175.282 242.748 175.133 242.113 174.834C241.488 174.525 240.967 174.113 240.55 173.597C240.133 173.072 239.826 172.474 239.628 171.804C239.43 171.124 239.331 170.413 239.331 169.671C239.331 168.929 239.43 168.217 239.628 167.537C239.836 166.857 240.149 166.259 240.566 165.744C240.993 165.218 241.524 164.806 242.16 164.507C242.806 164.198 243.566 164.043 244.441 164.043C245.15 164.043 245.817 164.136 246.442 164.322C247.077 164.497 247.635 164.724 248.114 165.002L247.583 166.177C246.926 165.857 246.327 165.641 245.785 165.528C245.244 165.414 244.785 165.357 244.41 165.357C243.775 165.357 243.228 165.476 242.769 165.713C242.321 165.95 241.951 166.27 241.66 166.672C241.378 167.073 241.17 167.537 241.035 168.063C240.899 168.578 240.831 169.114 240.831 169.671C240.831 170.227 240.899 170.763 241.035 171.278C241.17 171.794 241.378 172.252 241.66 172.654C241.951 173.056 242.321 173.376 242.769 173.613C243.228 173.85 243.775 173.968 244.41 173.968C244.785 173.968 245.244 173.912 245.785 173.798C246.327 173.685 246.926 173.469 247.583 173.149L248.114 174.324Z" fill="white"/>
<path d="M256.906 175.282C256.562 174.932 256.198 174.535 255.812 174.092C255.427 173.639 255.046 173.18 254.671 172.716C254.296 172.242 253.937 171.778 253.593 171.325C253.26 170.861 252.968 170.444 252.718 170.073L251.405 171.68V175.128H249.936V164.198H251.405V169.794L255.906 164.198H257.516L253.593 168.99C253.895 169.434 254.234 169.903 254.609 170.397C254.984 170.892 255.364 171.382 255.75 171.866C256.145 172.34 256.536 172.799 256.922 173.242C257.307 173.675 257.667 174.051 258 174.37L256.906 175.282Z" fill="white"/>
<defs>
<linearGradient id="paint0_linear_3_96" x1="253.922" y1="4.99675" x2="171.543" y2="211.368" gradientUnits="userSpaceOnUse">
<stop stop-color="#5BDADE"/>
<stop offset="1" stop-color="#2651E0"/>
</linearGradient>
<linearGradient id="paint1_linear_3_96" x1="253.922" y1="4.99675" x2="171.543" y2="211.368" gradientUnits="userSpaceOnUse">
<stop stop-color="#5BDADE"/>
<stop offset="1" stop-color="#2651E0"/>
</linearGradient>
<linearGradient id="paint2_linear_3_96" x1="253.922" y1="4.99675" x2="171.543" y2="211.368" gradientUnits="userSpaceOnUse">
<stop stop-color="#5BDADE"/>
<stop offset="1" stop-color="#2651E0"/>
</linearGradient>
<linearGradient id="paint3_linear_3_96" x1="253.922" y1="4.99675" x2="171.543" y2="211.368" gradientUnits="userSpaceOnUse">
<stop stop-color="#5BDADE"/>
<stop offset="1" stop-color="#2651E0"/>
</linearGradient>
<linearGradient id="paint4_linear_3_96" x1="253.922" y1="4.99675" x2="171.543" y2="211.368" gradientUnits="userSpaceOnUse">
<stop stop-color="#5BDADE"/>
<stop offset="1" stop-color="#2651E0"/>
</linearGradient>
<linearGradient id="paint5_linear_3_96" x1="253.922" y1="4.99675" x2="171.543" y2="211.368" gradientUnits="userSpaceOnUse">
<stop stop-color="#5BDADE"/>
<stop offset="1" stop-color="#2651E0"/>
</linearGradient>
<linearGradient id="paint6_linear_3_96" x1="253.922" y1="4.99675" x2="171.543" y2="211.368" gradientUnits="userSpaceOnUse">
<stop stop-color="#5BDADE"/>
<stop offset="1" stop-color="#2651E0"/>
</linearGradient>
<linearGradient id="paint7_linear_3_96" x1="253.922" y1="4.99675" x2="171.543" y2="211.368" gradientUnits="userSpaceOnUse">
<stop stop-color="#5BDADE"/>
<stop offset="1" stop-color="#2651E0"/>
</linearGradient>
<linearGradient id="paint8_linear_3_96" x1="253.922" y1="4.99675" x2="171.543" y2="211.368" gradientUnits="userSpaceOnUse">
<stop stop-color="#5BDADE"/>
<stop offset="1" stop-color="#2651E0"/>
</linearGradient>
<linearGradient id="paint9_linear_3_96" x1="253.922" y1="4.99675" x2="171.543" y2="211.368" gradientUnits="userSpaceOnUse">
<stop stop-color="#5BDADE"/>
<stop offset="1" stop-color="#2651E0"/>
</linearGradient>
</defs>
</svg>
